 <svg
    width="64"
    height="64"
    viewBox="0 0 24 24"
    class="mx-auto text-blue-400"
    xmlns="http://www.w3.org/2000/svg"
>
    <path
    fill="currentColor"
    d="M17.5,12A1.5,1.5 0 0,1 16,10.5A1.5,1.5 0 0,1 17.5,9A1.5,1.5 0 0,1 19,10.5A1.5,1.5 0 0,1 17.5,12M14.5,8A1.5,1.5 0 0,1 13,6.5A1.5,1.5 0 0,1 14.5,5A1.5,1.5 0 0,1 16,6.5A1.5,1.5 0 0,1 14.5,8M9.5,8A1.5,1.5 0 0,1 8,6.5A1.5,1.5 0 0,1 9.5,5A1.5,1.5 0 0,1 11,6.5A1.5,1.5 0 0,1 9.5,8M6.5,12A1.5,1.5 0 0,1 5,10.5A1.5,1.5 0 0,1 6.5,9A1.5,1.5 0 0,1 8,10.5A1.5,1.5 0 0,1 6.5,12M12,3A1.5,1.5 0 0,1 10.5,1.5A1.5,1.5 0 0,1 12,0A1.5,1.5 0 0,1 13.5,1.5A1.5,1.5 0 0,1 12,3M12,21A1.5,1.5 0 0,1 10.5,19.5A1.5,1.5 0 0,1 12,18A1.5,1.5 0 0,1 13.5,19.5A1.5,1.5 0 0,1 12,21M3,9A1.5,1.5 0 0,1 1.5,7.5A1.5,1.5 0 0,1 3,6A1.5,1.5 0 0,1 4.5,7.5A1.5,1.5 0 0,1 3,9M12,15A1.5,1.5 0 0,1 10.5,13.5A1.5,1.5 0 0,1 12,12A1.5,1.5 0 0,1 13.5,13.5A1.5,1.5 0 0,1 12,15M21,9A1.5,1.5 0 0,1 19.5,7.5A1.5,1.5 0 0,1 21,6A1.5,1.5 0 0,1 22.5,7.5A1.5,1.5 0 0,1 21,9Z"
    />
</svg>